HIERARCHY
ROOT SpineBase
{
  OFFSET 0.000000 0.000000 0.000000
  CHANNELS 6 Xposition Yposition Zposition Zrotation Xrotation Yrotation
  JOINT SpineMid
  {
    OFFSET -0.000000 30.134755 0.000000
    CHANNELS 3 Zrotation Xrotation Yrotation
    JOINT SpineShoulder
    {
      OFFSET -0.001394 22.462990 -0.836872
      CHANNELS 3 Zrotation Xrotation Yrotation
      JOINT Neck
      {
        OFFSET 0.005439 7.467238 -0.631475
        CHANNELS 3 Zrotation Xrotation Yrotation
        JOINT Head
        {
          OFFSET -5.306213 12.681633 -1.038450
          CHANNELS 3 Zrotation Xrotation Yrotation
          End Site
          {
            OFFSET 0 0 0
          }
        }
      }
      JOINT ShoulderLeft
      {
        OFFSET -13.927483 -5.007656 10.113497
        CHANNELS 3 Zrotation Xrotation Yrotation
        JOINT ElbowLeft
        {
          OFFSET -0.343229 -19.759005 3.807811
          CHANNELS 3 Zrotation Xrotation Yrotation
          JOINT WristLeft
          {
            OFFSET -4.224268 -11.655622 19.739386
            CHANNELS 3 Zrotation Xrotation Yrotation
            JOINT HandLeft
            {
              OFFSET -1.440956 -3.968005 6.961272
              CHANNELS 3 Zrotation Xrotation Yrotation
              JOINT HandTipLeft
              {
                OFFSET 0.166101 -4.660166 -2.116200
                CHANNELS 3 Zrotation Xrotation Yrotation
                End Site
                {
                  OFFSET 0 0 0
                }
              }
              JOINT ThumbLeft
              {
                OFFSET -1.547985 -1.521451 -0.167529
                CHANNELS 3 Zrotation Xrotation Yrotation
                End Site
                {
                  OFFSET 0 0 0
                }
              }
            }
          }
        }
      }
      JOINT ShoulderRight
      {
        OFFSET 11.181841 -2.075632 -11.181693
        CHANNELS 3 Zrotation Xrotation Yrotation
        JOINT ElbowRight
        {
          OFFSET 5.902901 -22.454333 -4.778286
          CHANNELS 3 Zrotation Xrotation Yrotation
          JOINT WristRight
          {
            OFFSET -0.916020 -21.933685 -3.724022
            CHANNELS 3 Zrotation Xrotation Yrotation
            JOINT HandRight
            {
              OFFSET -1.281041 -7.879132 -0.935964
              CHANNELS 3 Zrotation Xrotation Yrotation
              JOINT HandTipRight
              {
                OFFSET -0.739531 -6.455743 -0.686696
                CHANNELS 3 Zrotation Xrotation Yrotation
                End Site
                {
                  OFFSET 0 0 0
                }
              }
              JOINT ThumbRight
              {
                OFFSET -2.759067 1.253642 0.799255
                CHANNELS 3 Zrotation Xrotation Yrotation
                End Site
                {
                  OFFSET 0 0 0
                }
              }
            }
          }
        }
      }
    }
  }
  JOINT HipLeft
  {
    OFFSET -5.672630 0.339488 1.133335
    CHANNELS 3 Zrotation Xrotation Yrotation
    JOINT KneeLeft
    {
      OFFSET 2.225815 -28.496313 2.786190
      CHANNELS 3 Zrotation Xrotation Yrotation
      JOINT AnkleLeft
      {
        OFFSET 10.061780 -33.224518 10.316993
        CHANNELS 3 Zrotation Xrotation Yrotation
        JOINT FootLeft
        {
          OFFSET -5.843265 -3.603230 -10.711649
          CHANNELS 3 Zrotation Xrotation Yrotation
          End Site
          {
            OFFSET 0 0 0
          }
        }
      }
    }
  }
  JOINT HipRight
  {
    OFFSET 5.998310 1.807328 -7.981390
    CHANNELS 3 Zrotation Xrotation Yrotation
    JOINT KneeRight
    {
      OFFSET 8.802619 -22.936531 -2.285176
      CHANNELS 3 Zrotation Xrotation Yrotation
      JOINT AnkleRight
      {
        OFFSET 7.312819 -35.742309 12.664066
        CHANNELS 3 Zrotation Xrotation Yrotation
        JOINT FootRight
        {
          OFFSET -5.935955 -3.648070 -10.584087
          CHANNELS 3 Zrotation Xrotation Yrotation
          End Site
          {
            OFFSET 0 0 0
          }
        }
      }
    }
  }
}
MOTION
Frames: 8
Frame Time: 0.033333
-15.344780 71.798410 326.290142 0.000000 0.000000 37.988987 -0.000000 0.000000 -37.988987 -0.000000 0.000000 0.000000 -0.000000 0.000000 0.000000 0.000000 0.000000 0.000000 -0.000000 0.000000 0.000000 -0.000000 0.000000 0.000000 -0.000000 0.000000 0.000000 -0.000000 0.000000 0.000000 0.000000 0.000000 0.000000 0.000000 0.000000 0.000000 -0.000000 0.000000 0.000000 -0.000000 0.000000 0.000000 -0.000000 0.000000 0.000000 -0.000000 0.000000 0.000000 0.000000 0.000000 0.000000 0.000000 0.000000 0.000000 -0.000000 0.000000 -37.988987 -0.000000 0.000000 0.000000 -0.000000 0.000000 0.000000 0.000000 0.000000 0.000000 -0.000000 0.000000 -37.988987 -0.000000 0.000000 0.000000 -0.000000 0.000000 0.000000 0.000000 0.000000 0.000000
-15.365184 71.819855 326.161568 0.094092 0.027573 37.744136 -0.091282 0.035793 -37.744130 -0.000000 0.000000 0.000000 -0.000000 0.000000 0.000000 0.000000 0.000000 0.000000 -0.000000 0.000000 0.000000 -0.000000 0.000000 0.000000 -0.000000 0.000000 0.000000 -0.000000 0.000000 0.000000 0.000000 0.000000 0.000000 0.000000 0.000000 0.000000 -0.000000 0.000000 0.000000 -0.000000 0.000000 0.000000 -0.891517 -2.926837 0.560084 2.051985 2.779480 -0.768543 0.000000 0.000000 0.000000 0.000000 0.000000 0.000000 -0.091282 0.035793 -37.744130 -0.000000 0.000000 0.000000 -0.000000 0.000000 0.000000 0.000000 0.000000 0.000000 -0.091282 0.035793 -37.744130 -0.000000 0.000000 0.000000 -0.294691 0.723678 -0.313643 0.000000 0.000000 0.000000
-15.390067 71.836841 326.052766 0.174631 0.038187 37.538734 -0.161739 0.076122 -37.538684 -0.000000 0.000000 0.000000 -0.978135 0.456796 0.115384 0.000000 0.000000 0.000000 -0.000000 0.000000 0.000000 -0.017371 -1.030358 0.338683 0.000258 0.051219 -0.018626 0.022889 0.979026 -0.320401 0.000000 0.000000 0.000000 0.000000 0.000000 0.000000 -0.000000 0.000000 0.000000 -0.000000 0.000000 0.000000 -1.725506 -5.631942 1.040027 3.993100 5.200732 -1.607748 0.000000 0.000000 0.000000 0.000000 0.000000 0.000000 -0.161739 0.076122 -37.538684 -0.000000 0.000000 0.000000 -0.000000 0.000000 0.000000 0.000000 0.000000 0.000000 -0.161739 0.076122 -37.538684 -0.000000 0.000000 0.000000 -0.410317 1.074894 -0.537018 0.000000 0.000000 0.000000
-15.419427 71.849366 325.963737 0.241581 0.031818 37.371916 -0.211301 0.121350 -37.371759 -0.000000 0.000000 0.000000 -1.365032 0.621671 0.156594 0.000000 0.000000 0.000000 -0.000000 0.000000 0.000000 -0.005437 -1.329611 0.463514 -0.000838 0.066642 -0.025334 0.016475 1.262890 -0.438405 0.000000 0.000000 0.000000 0.000000 0.000000 0.000000 -0.000000 0.000000 0.000000 0.203148 -0.831638 0.001717 -2.674486 -7.149896 1.465287 5.757504 7.138684 -2.437792 0.000000 0.000000 0.000000 0.000000 0.000000 0.000000 -0.211301 0.121350 -37.371759 -0.000000 0.000000 0.000000 -0.000000 0.000000 0.000000 0.000000 0.000000 0.000000 -1.043972 -0.189929 -37.614608 0.469633 0.754778 0.239257 -0.357253 1.070997 -0.680959 0.000000 0.000000 0.000000
-15.453265 71.857432 325.894480 0.294915 0.008455 37.243002 -0.239892 0.171750 -37.242664 -0.000000 0.000000 0.000000 -1.682832 0.744128 0.185718 0.000000 0.000000 0.000000 -0.326229 -0.767617 -0.051651 0.346022 -0.716951 0.605797 -0.002749 0.075169 -0.030276 -0.002753 1.409812 -0.528179 0.000000 0.000000 0.000000 0.000000 0.000000 0.000000 -0.000000 0.000000 0.000000 0.215885 -1.036257 0.008590 -3.327227 -8.815918 1.769542 7.274195 8.490304 -3.169407 0.000000 0.000000 0.000000 0.000000 0.000000 0.000000 -0.239892 0.171750 -37.242664 -0.000000 0.000000 0.000000 -0.000000 0.000000 0.000000 0.000000 0.000000 0.000000 -1.203735 -0.208768 -37.530336 0.532605 0.888897 0.283229 -0.135154 0.710769 -0.748663 0.000000 0.000000 0.000000
-15.491581 71.861037 325.844995 0.334608 -0.031907 37.151488 -0.247429 0.227508 -37.150903 -0.000000 0.000000 0.000000 -1.931169 0.824269 0.202180 0.000000 0.000000 0.000000 -0.280092 -0.841208 -0.041361 0.336638 -0.654693 0.660840 -0.005475 0.076766 -0.033441 -0.035227 1.419865 -0.589755 0.000000 0.000000 0.000000 0.000000 0.000000 0.000000 -0.335535 -0.944494 -0.180117 0.539887 -0.267642 0.189536 -3.827507 -9.933586 1.971116 8.477585 9.184289 -3.717560 0.000000 0.000000 0.000000 0.000000 0.000000 0.000000 -0.418590 -0.583998 -37.175432 -0.353995 0.750022 0.026313 -0.000000 0.000000 0.000000 0.000000 0.000000 0.000000 -1.269846 -0.203919 -37.465250 0.549146 0.964328 0.309936 -0.000000 0.000000 0.000000 0.000000 0.000000 0.000000
-15.544396 71.847273 325.851585 0.354505 -0.135153 37.088782 -0.201289 0.321595 -37.087799 -0.000000 0.000000 0.000000 -2.236329 0.798847 0.168171 0.000000 0.000000 0.000000 -0.131260 -1.151143 -0.006604 0.215953 -0.180178 0.617329 -0.007200 0.071573 -0.032937 -0.063976 1.260559 -0.580394 0.000000 0.000000 0.000000 0.000000 0.000000 0.000000 -0.631495 -1.284463 -0.211185 0.701778 -0.074459 0.241308 -4.493488 -10.479803 2.073150 10.623678 7.820169 -4.159380 0.000000 0.000000 0.000000 0.000000 0.000000 0.000000 -0.266724 -0.528667 -37.098939 -0.460704 0.717628 0.013907 0.195295 0.172367 -0.858908 0.000000 0.000000 0.000000 -1.090981 -0.092760 -37.373626 0.455542 0.869329 0.284148 1.426506 -2.264009 -0.462222 0.000000 0.000000 0.000000
-15.577878 71.862266 325.827121 0.360905 -0.174350 37.098155 -0.182698 0.356752 -37.097037 -0.000000 0.000000 0.000000 -2.486334 0.763776 0.133816 0.000000 0.000000 0.000000 0.107539 -1.480979 0.047723 -0.066728 0.068430 0.523652 -0.003531 0.077779 -0.031382 -0.023896 1.335146 -0.537458 0.000000 0.000000 0.000000 0.000000 0.000000 0.000000 -0.964399 -1.592647 -0.228064 1.034847 0.169782 0.247692 -4.585054 -10.502553 2.090414 11.026254 9.112909 -4.485918 0.000000 0.000000 0.000000 0.000000 0.000000 0.000000 -0.133779 -0.651566 -37.094149 -0.647204 0.774758 0.001614 0.210621 0.193919 -0.939018 0.000000 0.000000 0.000000 -1.054363 -0.080182 -37.388094 0.427284 0.876438 0.289892 2.338864 -3.997705 -0.228192 0.000000 0.000000 0.000000
